<svg xmlns="http://www.w3.org/2000/svg" viewBox="0 0 64 64" width="64" height="64">
  <defs>
    <linearGradient id="cloudGradient" x1="0" y1="0" x2="1" y2="1">
      <stop offset="0%" stop-color="#dde8ff" />
      <stop offset="100%" stop-color="#a4c8ff" />
    </linearGradient>
    <linearGradient id="sunGradient" x1="0" y1="0" x2="1" y2="1">
      <stop offset="0%" stop-color="#ffcf4f" />
      <stop offset="100%" stop-color="#fda623" />
    </linearGradient>
  </defs>
  <rect width="64" height="64" rx="16" fill="#0a0a0f" />
  <circle cx="42" cy="20" r="10" fill="url(#sunGradient)" opacity="0.95" />
  <g fill="#fefefe" opacity="0.95">
    <path d="M18 36c-4.4 0-8 3.6-8 8s3.6 8 8 8h26c4.4 0 8-3.6 8-8s-3.6-8-8-8h-1.2c-1.2-4.5-5.3-7.8-10-7.8-4.7 0-8.8 3.3-10 7.8H18z" fill="url(#cloudGradient)" />
  </g>
  <g stroke="#c5def9" stroke-width="3" stroke-linecap="round">
    <line x1="26" y1="50" x2="26" y2="58" />
    <line x1="34" y1="50" x2="34" y2="58" />
    <line x1="42" y1="50" x2="42" y2="58" />
  </g>
  <g stroke="#ffeb99" stroke-width="3" stroke-linecap="round">
    <line x1="42" y1="6" x2="42" y2="12" />
    <line x1="50" y1="14" x2="46" y2="18" />
    <line x1="33" y1="11" x2="29" y2="15" />
    <line x1="52" y1="24" x2="46" y2="24" />
  </g>
</svg>
